<svg xmlns="http://www.w3.org/2000/svg" width="49" height="48" viewBox="0 0 49 48" fill="none">
  <path d="M26.5571 48C25.8475 48 25.2476 47.4861 25.0757 46.7976C24.5279 44.6032 23.4792 42.2695 21.9297 39.797C20.0938 36.8281 17.4766 34.0743 14.0781 31.5352C11.1224 29.3011 8.16657 27.7777 5.21081 26.965C4.51076 26.7726 4 26.1518 4 25.4258C4 24.714 4.49111 24.1004 5.17556 23.905C8.07351 23.0775 10.8652 21.7342 13.5508 19.875C16.6367 17.7266 19.2148 15.1484 21.2852 12.1406C23.1167 9.46121 24.3739 6.81123 25.0569 4.19072C25.2358 3.50421 25.8402 3 26.5497 3C27.267 3 27.8756 3.51538 28.0502 4.21124C28.4444 5.78221 29.0605 7.3902 29.8984 9.03515C30.9532 11.0664 32.3007 13.0195 33.9414 14.8945C35.621 16.7305 37.4962 18.3906 39.5664 19.875C42.2718 21.7927 45.022 23.14 47.8174 23.9169C48.5032 24.1075 49 24.718 49 25.4297C49 26.152 48.4881 26.7676 47.7915 26.9587C46.0196 27.4444 44.1958 28.2279 42.3204 29.3086C40.0547 30.6367 37.9453 32.2187 35.9921 34.0547C34.0391 35.8516 32.4375 37.7461 31.1874 39.7382C29.6349 42.2159 28.5851 44.5676 28.0383 46.7938C27.8687 47.4843 27.2679 48 26.5571 48Z" fill="#FFDBD1"/>
  <path d="M18.5044 38.0599L18.506 38.0625C20.0353 40.5026 21.0586 42.7877 21.5906 44.9187C21.8125 45.8078 22.5959 46.5 23.5571 46.5C24.5199 46.5 25.3047 45.8053 25.5239 44.9131L25.5239 44.913C26.055 42.7507 27.0794 40.4483 28.6109 38.004C29.8346 36.054 31.4062 34.1932 33.3306 32.4227L33.3345 32.419C35.2606 30.6086 37.3395 29.0495 39.5717 27.7409C41.4159 26.6783 43.2 25.9135 44.9237 25.4409L44.9238 25.4409C45.8174 25.1958 46.5 24.3975 46.5 23.4297C46.5 22.4775 45.8377 21.6815 44.9513 21.4352C42.2192 20.6759 39.5213 19.3565 36.8567 17.4679C34.8159 16.0045 32.9685 14.3689 31.3141 12.5611C29.6996 10.7155 28.377 8.79719 27.3431 6.80658C26.5204 5.19113 25.919 3.6189 25.5352 2.08956C25.3097 1.19089 24.5159 0.5 23.5497 0.5C22.5945 0.5 21.8047 1.17591 21.5731 2.06461C20.9072 4.61934 19.6779 7.21693 17.8729 9.85773C15.8379 12.814 13.3035 15.3492 10.266 17.464C7.6217 19.2946 4.87934 20.613 2.03829 21.4242C1.15264 21.677 0.5 22.477 0.5 23.4258C0.5 24.3948 1.17893 25.1999 2.07832 25.4471C4.96169 26.2399 7.86114 27.7305 10.7766 29.9341L10.7789 29.9357C14.1376 32.4452 16.7078 35.1545 18.5044 38.0599Z" stroke="#FA9EBC"/>
</svg>